<?xml version="1.0" encoding="UTF-8" standalone="no"?>
<!-- Created with Inkscape (http://www.inkscape.org/) -->

<svg
   width="512"
   height="512"
   viewBox="0 0 512 512"
   version="1.1"
   id="svg1"
   xmlns="http://www.w3.org/2000/svg"
   xmlns:svg="http://www.w3.org/2000/svg">
  <defs
     id="defs1" />
  <g
     id="layer1">
    <path
       d="M 496.77143,239.58846 278.78369,47.713591 c -6.08029,-5.351961 -14.05243,-8.031342 -22.01671,-8.031342 -7.96435,0 -15.93648,2.679381 -22.01681,8.031342 L 16.762386,239.58846 c -12.1606212,10.7312 -11.5533215,27.52027 0.607257,38.22424 12.191759,10.75865 30.012241,12.34155 42.211794,1.60343 l 10.634682,-9.36755 v 180.79405 c 0,15.1513 13.92787,27.41072 31.141091,27.41072 103.80384,-0.0784 207.6073,0 311.41115,0 17.21322,0 31.14109,-12.25942 31.14109,-27.41072 V 270.58311 l 9.30345,8.18894 c 12.16059,10.70379 30.74401,9.74444 42.94357,-0.96686 12.16837,-10.69708 12.80676,-27.51359 0.61492,-38.21736 z"
       id="path1"
       style="fill:#ff914d;fill-opacity:1;stroke-width:7.30409" />
    <rect
       style="fill:#ff914d;fill-opacity:1;stroke-width:0.959468"
       id="rect11"
       width="131.44295"
       height="69.942116"
       x="122.21626"
       y="280.22974"
       ry="0" />
    <path
       id="path15"
       style="fill:#ffffff;stroke-width:4.66886"
       d="m 297.27068,501.19092 -107.71797,-17.86348 28.60319,-171.82579 59.16774,-28.07661 48.00694,45.18381 z" />
    <circle
       id="path40"
       style="fill:#000000;stroke:#000000;stroke-width:1.56708;stroke-dasharray:none"
       cx="258.2764"
       cy="140.04758"
       r="0.090040915" />
    <path
       style="fill:#ffffff;fill-opacity:1;stroke-width:1.56708;stroke-dasharray:none"
       d="M 148.76639,221.84219 C 263.68435,101.5164 263.68435,101.5164 263.68435,101.5164"
       id="path42" />
    <path
       style="fill:none;fill-opacity:1;stroke:#ffffff;stroke-width:0.7;stroke-dasharray:none;stroke-opacity:1"
       d="m 52.62682,110.73201 c 0.388403,-1.05885 0.762301,-2.12303 1.121556,-3.19212 0.19077,-0.5677 0.379077,-1.1455 0.406768,-1.74376 0.01385,-0.29913 -0.01334,-0.60168 -0.09904,-0.88861 -0.0857,-0.28692 -0.231178,-0.55806 -0.437136,-0.77543 -0.246721,-0.2604 -0.57795,-0.43832 -0.930328,-0.50545 -0.352379,-0.0671 -0.724202,-0.024 -1.053962,0.11722 -0.536805,0.22985 -0.948809,0.71975 -1.109937,1.28102 -0.161128,0.56128 -0.07657,1.18332 0.204067,1.69541 0.299449,0.54642 0.815453,0.96586 1.404751,1.16828 0.589297,0.20242 1.246067,0.19049 1.835262,-0.0122 0.589195,-0.20272 1.109295,-0.59196 1.488134,-1.08666 0.378839,-0.4947 0.617662,-1.09195 0.707083,-1.70859 0.107457,-0.74102 6.48e-4,-1.50801 -0.277414,-2.20324 -0.278062,-0.69522 -0.724395,-1.31889 -1.272412,-1.82911 -1.096033,-1.02045 -2.571194,-1.568634 -4.057951,-1.747968 -0.772728,-0.09321 -1.556656,-0.0932 -2.329384,9e-6"
       id="path47"
       transform="matrix(15.670813,0,0,15.670813,-550.88098,-1440.4118)" />
  </g>
</svg>
